<svg xmlns="http://www.w3.org/2000/svg" viewBox="0 0 1600 800" preserveAspectRatio="xMidYMid slice"><defs>
    <linearGradient id="sky" x1="0" y1="0" x2="0" y2="1">
      <stop offset="0" stop-color="#F7D8A5"/>
      <stop offset="1" stop-color="#E29C82"/>
    </linearGradient>
    <linearGradient id="wallG" x1="0" y1="0" x2="0" y2="1">
      <stop offset="0" stop-color="#FBE9D0"/>
      <stop offset="1" stop-color="#FBE9D0" stop-opacity="0.85"/>
    </linearGradient>
    <pattern id="dots" width="36" height="36" patternUnits="userSpaceOnUse">
      <circle cx="2" cy="2" r="1.4" fill="white" opacity="0.18"/>
    </pattern>
  </defs>
  <rect width="1600" height="800" fill="url(#sky)"/>
  <rect width="1600" height="800" fill="url(#dots)"/>
    <rect x="0" y="640" width="1600" height="160" fill="#5E3A52" opacity="0.85"/>
   <rect x="0" y="640" width="1600" height="160" fill="url(#dots)"/>
    
  <circle cx="1300" cy="200" r="70" fill="#EF9F27" opacity="0.55"/>
  <circle cx="1300" cy="200" r="44" fill="#EF9F27" opacity="0.9"/>

    
    <rect x="164.75" y="602.25" width="10.5" height="57.75" fill="#3A2032"/>
    <ellipse cx="170" cy="592.25" rx="31.5" ry="57.75" fill="#5E3A52" opacity="0.95"/>
    <ellipse cx="157.4" cy="577.25" rx="18.9" ry="48.125" fill="#5E3A52" opacity="0.8"/>
    <ellipse cx="182.6" cy="577.25" rx="18.9" ry="48.125" fill="#5E3A52" opacity="0.85"/>
  
    
    <rect x="1434.5" y="599.5" width="11" height="60.50000000000001" fill="#3A2032"/>
    <ellipse cx="1440" cy="589.5" rx="33" ry="60.50000000000001" fill="#5E3A52" opacity="0.95"/>
    <ellipse cx="1426.8" cy="574.5" rx="19.8" ry="50.41666666666667" fill="#5E3A52" opacity="0.8"/>
    <ellipse cx="1453.2" cy="574.5" rx="19.8" ry="50.41666666666667" fill="#5E3A52" opacity="0.85"/>
  
    <!-- plot outline -->
    <path d="M 460 480 L 1200 460 L 1240 640 L 420 640 Z"
          fill="#5E3A52" opacity="0.55" stroke="#3A2032" stroke-width="6" stroke-dasharray="14 10"/>
    <!-- markers -->
    <circle cx="460" cy="480" r="14" fill="#EF9F27"/>
    <circle cx="1200" cy="460" r="14" fill="#EF9F27"/>
    <circle cx="1240" cy="640" r="14" fill="#EF9F27"/>
    <circle cx="420" cy="640" r="14" fill="#EF9F27"/>
    <!-- measure -->
    <line x1="460" y1="700" x2="1240" y2="700" stroke="#3A2032" stroke-width="4"/>
    <polygon points="460,700 478,690 478,710" fill="#3A2032"/>
    <polygon points="1240,700 1222,690 1222,710" fill="#3A2032"/>
    <text x="850" y="735" text-anchor="middle" font-family="Assistant, sans-serif" font-size="36" font-weight="700" fill="#3A2032">500 מ"ר</text>
  </svg>
