<svg xmlns="http://www.w3.org/2000/svg" viewBox="0 0 1600 800" preserveAspectRatio="xMidYMid slice"><defs>
    <linearGradient id="sky" x1="0" y1="0" x2="0" y2="1">
      <stop offset="0" stop-color="#F7D8A5"/>
      <stop offset="1" stop-color="#E29C82"/>
    </linearGradient>
    <linearGradient id="wallG" x1="0" y1="0" x2="0" y2="1">
      <stop offset="0" stop-color="#FBE9D0"/>
      <stop offset="1" stop-color="#FBE9D0" stop-opacity="0.85"/>
    </linearGradient>
    <pattern id="dots" width="36" height="36" patternUnits="userSpaceOnUse">
      <circle cx="2" cy="2" r="1.4" fill="white" opacity="0.18"/>
    </pattern>
  </defs>
  <rect width="1600" height="800" fill="url(#sky)"/>
  <rect width="1600" height="800" fill="url(#dots)"/>
    
  <circle cx="1280" cy="200" r="70" fill="#EF9F27" opacity="0.55"/>
  <circle cx="1280" cy="200" r="44" fill="#EF9F27" opacity="0.9"/>

    <!-- hills -->
    <path d="M 0 520 Q 400 400 800 480 T 1600 460 L 1600 640 L 0 640 Z" fill="#5E3A52" opacity="0.7"/>
    <path d="M 0 580 Q 500 500 1000 560 T 1600 540 L 1600 640 L 0 640 Z" fill="#5E3A52" opacity="0.9"/>
    <!-- balcony floor -->
    <rect x="0" y="640" width="1600" height="160" fill="#3A2032" opacity="0.6"/>
    <!-- railing -->
    <rect x="0" y="600" width="1600" height="14" fill="#0F6E56"/>
    <rect x="80" y="614" width="10" height="60" fill="#0F6E56" opacity="0.85"/><rect x="210" y="614" width="10" height="60" fill="#0F6E56" opacity="0.85"/><rect x="340" y="614" width="10" height="60" fill="#0F6E56" opacity="0.85"/><rect x="470" y="614" width="10" height="60" fill="#0F6E56" opacity="0.85"/><rect x="600" y="614" width="10" height="60" fill="#0F6E56" opacity="0.85"/><rect x="730" y="614" width="10" height="60" fill="#0F6E56" opacity="0.85"/><rect x="860" y="614" width="10" height="60" fill="#0F6E56" opacity="0.85"/><rect x="990" y="614" width="10" height="60" fill="#0F6E56" opacity="0.85"/><rect x="1120" y="614" width="10" height="60" fill="#0F6E56" opacity="0.85"/><rect x="1250" y="614" width="10" height="60" fill="#0F6E56" opacity="0.85"/><rect x="1380" y="614" width="10" height="60" fill="#0F6E56" opacity="0.85"/><rect x="1510" y="614" width="10" height="60" fill="#0F6E56" opacity="0.85"/>
    <!-- chair -->
    <rect x="1200" y="650" width="200" height="20" fill="#FBE9D0"/>
    <rect x="1200" y="510" width="20" height="160" fill="#FBE9D0"/>
    <rect x="1380" y="510" width="20" height="160" fill="#FBE9D0"/>
    <ellipse cx="1300" cy="660" rx="120" ry="12" fill="#3A2032" opacity="0.5"/>
  </svg>
