<svg xmlns="http://www.w3.org/2000/svg" viewBox="0 0 1600 800" preserveAspectRatio="xMidYMid slice"><defs>
    <linearGradient id="sky" x1="0" y1="0" x2="0" y2="1">
      <stop offset="0" stop-color="#DBEFE2"/>
      <stop offset="1" stop-color="#9BD2A8"/>
    </linearGradient>
    <linearGradient id="wallG" x1="0" y1="0" x2="0" y2="1">
      <stop offset="0" stop-color="#F1F7F4"/>
      <stop offset="1" stop-color="#F1F7F4" stop-opacity="0.85"/>
    </linearGradient>
    <pattern id="dots" width="36" height="36" patternUnits="userSpaceOnUse">
      <circle cx="2" cy="2" r="1.4" fill="white" opacity="0.18"/>
    </pattern>
  </defs>
  <rect width="1600" height="800" fill="url(#sky)"/>
  <rect width="1600" height="800" fill="url(#dots)"/>
    <rect x="0" y="640" width="1600" height="160" fill="#1D9E75" opacity="0.85"/>
   <rect x="0" y="640" width="1600" height="160" fill="url(#dots)"/>
    
    <rect x="214.5" y="599.5" width="11" height="60.50000000000001" fill="#094534"/>
    <ellipse cx="220" cy="589.5" rx="33" ry="60.50000000000001" fill="#1D9E75" opacity="0.95"/>
    <ellipse cx="206.8" cy="574.5" rx="19.8" ry="50.41666666666667" fill="#1D9E75" opacity="0.8"/>
    <ellipse cx="233.2" cy="574.5" rx="19.8" ry="50.41666666666667" fill="#1D9E75" opacity="0.85"/>
  
    
    <rect x="1375.25" y="607.75" width="9.5" height="52.25" fill="#094534"/>
    <ellipse cx="1380" cy="597.75" rx="28.5" ry="52.25" fill="#1D9E75" opacity="0.95"/>
    <ellipse cx="1368.6" cy="582.75" rx="17.099999999999998" ry="43.54166666666667" fill="#1D9E75" opacity="0.8"/>
    <ellipse cx="1391.4" cy="582.75" rx="17.099999999999998" ry="43.54166666666667" fill="#1D9E75" opacity="0.85"/>
  
    
  <circle cx="1280" cy="180" r="70" fill="#EF9F27" opacity="0.55"/>
  <circle cx="1280" cy="180" r="44" fill="#EF9F27" opacity="0.9"/>

    <rect x="540" y="100" width="520" height="540" fill="url(#wallG)"/>
    <rect x="530" y="86" width="540" height="20" fill="#094534"/>
    <rect x="570" y="120" width="80" height="60" fill="#0F6E56" opacity="0.5"/>
   <line x1="610" y1="120" x2="610" y2="180" stroke="#F1F7F4" stroke-width="3"/>
   <line x1="570" y1="150" x2="650" y2="150" stroke="#F1F7F4" stroke-width="3"/><rect x="690" y="120" width="80" height="60" fill="#EF9F27" opacity="0.85"/>
   <line x1="730" y1="120" x2="730" y2="180" stroke="#F1F7F4" stroke-width="3"/>
   <line x1="690" y1="150" x2="770" y2="150" stroke="#F1F7F4" stroke-width="3"/><rect x="810" y="120" width="80" height="60" fill="#0F6E56" opacity="0.5"/>
   <line x1="850" y1="120" x2="850" y2="180" stroke="#F1F7F4" stroke-width="3"/>
   <line x1="810" y1="150" x2="890" y2="150" stroke="#F1F7F4" stroke-width="3"/><rect x="930" y="120" width="80" height="60" fill="#0F6E56" opacity="0.5"/>
   <line x1="970" y1="120" x2="970" y2="180" stroke="#F1F7F4" stroke-width="3"/>
   <line x1="930" y1="150" x2="1010" y2="150" stroke="#F1F7F4" stroke-width="3"/><rect x="570" y="210" width="80" height="60" fill="#EF9F27" opacity="0.85"/>
   <line x1="610" y1="210" x2="610" y2="270" stroke="#F1F7F4" stroke-width="3"/>
   <line x1="570" y1="240" x2="650" y2="240" stroke="#F1F7F4" stroke-width="3"/><rect x="690" y="210" width="80" height="60" fill="#0F6E56" opacity="0.5"/>
   <line x1="730" y1="210" x2="730" y2="270" stroke="#F1F7F4" stroke-width="3"/>
   <line x1="690" y1="240" x2="770" y2="240" stroke="#F1F7F4" stroke-width="3"/><rect x="810" y="210" width="80" height="60" fill="#0F6E56" opacity="0.5"/>
   <line x1="850" y1="210" x2="850" y2="270" stroke="#F1F7F4" stroke-width="3"/>
   <line x1="810" y1="240" x2="890" y2="240" stroke="#F1F7F4" stroke-width="3"/><rect x="930" y="210" width="80" height="60" fill="#EF9F27" opacity="0.85"/>
   <line x1="970" y1="210" x2="970" y2="270" stroke="#F1F7F4" stroke-width="3"/>
   <line x1="930" y1="240" x2="1010" y2="240" stroke="#F1F7F4" stroke-width="3"/><rect x="570" y="300" width="80" height="60" fill="#0F6E56" opacity="0.5"/>
   <line x1="610" y1="300" x2="610" y2="360" stroke="#F1F7F4" stroke-width="3"/>
   <line x1="570" y1="330" x2="650" y2="330" stroke="#F1F7F4" stroke-width="3"/><rect x="690" y="300" width="80" height="60" fill="#0F6E56" opacity="0.5"/>
   <line x1="730" y1="300" x2="730" y2="360" stroke="#F1F7F4" stroke-width="3"/>
   <line x1="690" y1="330" x2="770" y2="330" stroke="#F1F7F4" stroke-width="3"/><rect x="810" y="300" width="80" height="60" fill="#EF9F27" opacity="0.85"/>
   <line x1="850" y1="300" x2="850" y2="360" stroke="#F1F7F4" stroke-width="3"/>
   <line x1="810" y1="330" x2="890" y2="330" stroke="#F1F7F4" stroke-width="3"/><rect x="930" y="300" width="80" height="60" fill="#0F6E56" opacity="0.5"/>
   <line x1="970" y1="300" x2="970" y2="360" stroke="#F1F7F4" stroke-width="3"/>
   <line x1="930" y1="330" x2="1010" y2="330" stroke="#F1F7F4" stroke-width="3"/><rect x="570" y="390" width="80" height="60" fill="#0F6E56" opacity="0.5"/>
   <line x1="610" y1="390" x2="610" y2="450" stroke="#F1F7F4" stroke-width="3"/>
   <line x1="570" y1="420" x2="650" y2="420" stroke="#F1F7F4" stroke-width="3"/><rect x="690" y="390" width="80" height="60" fill="#EF9F27" opacity="0.85"/>
   <line x1="730" y1="390" x2="730" y2="450" stroke="#F1F7F4" stroke-width="3"/>
   <line x1="690" y1="420" x2="770" y2="420" stroke="#F1F7F4" stroke-width="3"/><rect x="810" y="390" width="80" height="60" fill="#0F6E56" opacity="0.5"/>
   <line x1="850" y1="390" x2="850" y2="450" stroke="#F1F7F4" stroke-width="3"/>
   <line x1="810" y1="420" x2="890" y2="420" stroke="#F1F7F4" stroke-width="3"/><rect x="930" y="390" width="80" height="60" fill="#0F6E56" opacity="0.5"/>
   <line x1="970" y1="390" x2="970" y2="450" stroke="#F1F7F4" stroke-width="3"/>
   <line x1="930" y1="420" x2="1010" y2="420" stroke="#F1F7F4" stroke-width="3"/><rect x="570" y="480" width="80" height="60" fill="#EF9F27" opacity="0.85"/>
   <line x1="610" y1="480" x2="610" y2="540" stroke="#F1F7F4" stroke-width="3"/>
   <line x1="570" y1="510" x2="650" y2="510" stroke="#F1F7F4" stroke-width="3"/><rect x="690" y="480" width="80" height="60" fill="#0F6E56" opacity="0.5"/>
   <line x1="730" y1="480" x2="730" y2="540" stroke="#F1F7F4" stroke-width="3"/>
   <line x1="690" y1="510" x2="770" y2="510" stroke="#F1F7F4" stroke-width="3"/><rect x="810" y="480" width="80" height="60" fill="#0F6E56" opacity="0.5"/>
   <line x1="850" y1="480" x2="850" y2="540" stroke="#F1F7F4" stroke-width="3"/>
   <line x1="810" y1="510" x2="890" y2="510" stroke="#F1F7F4" stroke-width="3"/><rect x="930" y="480" width="80" height="60" fill="#EF9F27" opacity="0.85"/>
   <line x1="970" y1="480" x2="970" y2="540" stroke="#F1F7F4" stroke-width="3"/>
   <line x1="930" y1="510" x2="1010" y2="510" stroke="#F1F7F4" stroke-width="3"/><rect x="570" y="570" width="80" height="60" fill="#0F6E56" opacity="0.5"/>
   <line x1="610" y1="570" x2="610" y2="630" stroke="#F1F7F4" stroke-width="3"/>
   <line x1="570" y1="600" x2="650" y2="600" stroke="#F1F7F4" stroke-width="3"/><rect x="690" y="570" width="80" height="60" fill="#0F6E56" opacity="0.5"/>
   <line x1="730" y1="570" x2="730" y2="630" stroke="#F1F7F4" stroke-width="3"/>
   <line x1="690" y1="600" x2="770" y2="600" stroke="#F1F7F4" stroke-width="3"/><rect x="810" y="570" width="80" height="60" fill="#EF9F27" opacity="0.85"/>
   <line x1="850" y1="570" x2="850" y2="630" stroke="#F1F7F4" stroke-width="3"/>
   <line x1="810" y1="600" x2="890" y2="600" stroke="#F1F7F4" stroke-width="3"/><rect x="930" y="570" width="80" height="60" fill="#0F6E56" opacity="0.5"/>
   <line x1="970" y1="570" x2="970" y2="630" stroke="#F1F7F4" stroke-width="3"/>
   <line x1="930" y1="600" x2="1010" y2="600" stroke="#F1F7F4" stroke-width="3"/>
    <rect x="765" y="540" width="70" height="100" fill="#094534" opacity="0.95"/>
    <rect x="770" y="545" width="60" height="85" fill="#EF9F27" opacity="0.55"/>
    <rect x="796" y="570" width="8" height="40" fill="#F1F7F4"/>
  </svg>
