<svg xmlns="http://www.w3.org/2000/svg" viewBox="0 0 1600 800" preserveAspectRatio="xMidYMid slice"><defs>
    <linearGradient id="sky" x1="0" y1="0" x2="0" y2="1">
      <stop offset="0" stop-color="#CFE3F5"/>
      <stop offset="1" stop-color="#9EC0DC"/>
    </linearGradient>
    <linearGradient id="wallG" x1="0" y1="0" x2="0" y2="1">
      <stop offset="0" stop-color="#EAF1F2"/>
      <stop offset="1" stop-color="#EAF1F2" stop-opacity="0.85"/>
    </linearGradient>
    <pattern id="dots" width="36" height="36" patternUnits="userSpaceOnUse">
      <circle cx="2" cy="2" r="1.4" fill="white" opacity="0.18"/>
    </pattern>
  </defs>
  <rect width="1600" height="800" fill="url(#sky)"/>
  <rect width="1600" height="800" fill="url(#dots)"/>
    <rect x="0" y="640" width="1600" height="160" fill="#5C7F8E" opacity="0.85"/>
   <rect x="0" y="640" width="1600" height="160" fill="url(#dots)"/>
    
    <rect x="195" y="605" width="10" height="55" fill="#5A6B66"/>
    <ellipse cx="200" cy="595" rx="30" ry="55" fill="#5C7F8E" opacity="0.95"/>
    <ellipse cx="188" cy="580" rx="18" ry="45.833333333333336" fill="#5C7F8E" opacity="0.8"/>
    <ellipse cx="212" cy="580" rx="18" ry="45.833333333333336" fill="#5C7F8E" opacity="0.85"/>
  
    
  <circle cx="1300" cy="170" r="70" fill="#EF9F27" opacity="0.55"/>
  <circle cx="1300" cy="170" r="44" fill="#EF9F27" opacity="0.9"/>

    <!-- Skyline backdrop -->
    <rect x="100" y="500" width="120" height="140" fill="#0F6E56" opacity="0.18"/>
    <rect x="240" y="460" width="100" height="180" fill="#0F6E56" opacity="0.22"/>
    <rect x="1280" y="490" width="120" height="150" fill="#0F6E56" opacity="0.18"/>
    <rect x="1420" y="450" width="100" height="190" fill="#0F6E56" opacity="0.22"/>
    <!-- main tower -->
    <rect x="560" y="160" width="480" height="480" fill="url(#wallG)"/>
    <rect x="590" y="175" width="70" height="50" fill="#EF9F27" opacity="0.85"/>
   <line x1="625" y1="175" x2="625" y2="225" stroke="#EAF1F2" stroke-width="3"/>
   <line x1="590" y1="200" x2="660" y2="200" stroke="#EAF1F2" stroke-width="3"/><rect x="700" y="175" width="70" height="50" fill="#0F6E56" opacity="0.5"/>
   <line x1="735" y1="175" x2="735" y2="225" stroke="#EAF1F2" stroke-width="3"/>
   <line x1="700" y1="200" x2="770" y2="200" stroke="#EAF1F2" stroke-width="3"/><rect x="810" y="175" width="70" height="50" fill="#0F6E56" opacity="0.5"/>
   <line x1="845" y1="175" x2="845" y2="225" stroke="#EAF1F2" stroke-width="3"/>
   <line x1="810" y1="200" x2="880" y2="200" stroke="#EAF1F2" stroke-width="3"/><rect x="920" y="175" width="70" height="50" fill="#0F6E56" opacity="0.5"/>
   <line x1="955" y1="175" x2="955" y2="225" stroke="#EAF1F2" stroke-width="3"/>
   <line x1="920" y1="200" x2="990" y2="200" stroke="#EAF1F2" stroke-width="3"/><rect x="590" y="255" width="70" height="50" fill="#0F6E56" opacity="0.5"/>
   <line x1="625" y1="255" x2="625" y2="305" stroke="#EAF1F2" stroke-width="3"/>
   <line x1="590" y1="280" x2="660" y2="280" stroke="#EAF1F2" stroke-width="3"/><rect x="700" y="255" width="70" height="50" fill="#EF9F27" opacity="0.85"/>
   <line x1="735" y1="255" x2="735" y2="305" stroke="#EAF1F2" stroke-width="3"/>
   <line x1="700" y1="280" x2="770" y2="280" stroke="#EAF1F2" stroke-width="3"/><rect x="810" y="255" width="70" height="50" fill="#0F6E56" opacity="0.5"/>
   <line x1="845" y1="255" x2="845" y2="305" stroke="#EAF1F2" stroke-width="3"/>
   <line x1="810" y1="280" x2="880" y2="280" stroke="#EAF1F2" stroke-width="3"/><rect x="920" y="255" width="70" height="50" fill="#0F6E56" opacity="0.5"/>
   <line x1="955" y1="255" x2="955" y2="305" stroke="#EAF1F2" stroke-width="3"/>
   <line x1="920" y1="280" x2="990" y2="280" stroke="#EAF1F2" stroke-width="3"/><rect x="590" y="335" width="70" height="50" fill="#0F6E56" opacity="0.5"/>
   <line x1="625" y1="335" x2="625" y2="385" stroke="#EAF1F2" stroke-width="3"/>
   <line x1="590" y1="360" x2="660" y2="360" stroke="#EAF1F2" stroke-width="3"/><rect x="700" y="335" width="70" height="50" fill="#0F6E56" opacity="0.5"/>
   <line x1="735" y1="335" x2="735" y2="385" stroke="#EAF1F2" stroke-width="3"/>
   <line x1="700" y1="360" x2="770" y2="360" stroke="#EAF1F2" stroke-width="3"/><rect x="810" y="335" width="70" height="50" fill="#EF9F27" opacity="0.85"/>
   <line x1="845" y1="335" x2="845" y2="385" stroke="#EAF1F2" stroke-width="3"/>
   <line x1="810" y1="360" x2="880" y2="360" stroke="#EAF1F2" stroke-width="3"/><rect x="920" y="335" width="70" height="50" fill="#0F6E56" opacity="0.5"/>
   <line x1="955" y1="335" x2="955" y2="385" stroke="#EAF1F2" stroke-width="3"/>
   <line x1="920" y1="360" x2="990" y2="360" stroke="#EAF1F2" stroke-width="3"/><rect x="590" y="415" width="70" height="50" fill="#0F6E56" opacity="0.5"/>
   <line x1="625" y1="415" x2="625" y2="465" stroke="#EAF1F2" stroke-width="3"/>
   <line x1="590" y1="440" x2="660" y2="440" stroke="#EAF1F2" stroke-width="3"/><rect x="700" y="415" width="70" height="50" fill="#0F6E56" opacity="0.5"/>
   <line x1="735" y1="415" x2="735" y2="465" stroke="#EAF1F2" stroke-width="3"/>
   <line x1="700" y1="440" x2="770" y2="440" stroke="#EAF1F2" stroke-width="3"/><rect x="810" y="415" width="70" height="50" fill="#0F6E56" opacity="0.5"/>
   <line x1="845" y1="415" x2="845" y2="465" stroke="#EAF1F2" stroke-width="3"/>
   <line x1="810" y1="440" x2="880" y2="440" stroke="#EAF1F2" stroke-width="3"/><rect x="920" y="415" width="70" height="50" fill="#EF9F27" opacity="0.85"/>
   <line x1="955" y1="415" x2="955" y2="465" stroke="#EAF1F2" stroke-width="3"/>
   <line x1="920" y1="440" x2="990" y2="440" stroke="#EAF1F2" stroke-width="3"/><rect x="590" y="495" width="70" height="50" fill="#0F6E56" opacity="0.5"/>
   <line x1="625" y1="495" x2="625" y2="545" stroke="#EAF1F2" stroke-width="3"/>
   <line x1="590" y1="520" x2="660" y2="520" stroke="#EAF1F2" stroke-width="3"/><rect x="700" y="495" width="70" height="50" fill="#0F6E56" opacity="0.5"/>
   <line x1="735" y1="495" x2="735" y2="545" stroke="#EAF1F2" stroke-width="3"/>
   <line x1="700" y1="520" x2="770" y2="520" stroke="#EAF1F2" stroke-width="3"/><rect x="810" y="495" width="70" height="50" fill="#0F6E56" opacity="0.5"/>
   <line x1="845" y1="495" x2="845" y2="545" stroke="#EAF1F2" stroke-width="3"/>
   <line x1="810" y1="520" x2="880" y2="520" stroke="#EAF1F2" stroke-width="3"/><rect x="920" y="495" width="70" height="50" fill="#0F6E56" opacity="0.5"/>
   <line x1="955" y1="495" x2="955" y2="545" stroke="#EAF1F2" stroke-width="3"/>
   <line x1="920" y1="520" x2="990" y2="520" stroke="#EAF1F2" stroke-width="3"/><rect x="590" y="575" width="70" height="50" fill="#EF9F27" opacity="0.85"/>
   <line x1="625" y1="575" x2="625" y2="625" stroke="#EAF1F2" stroke-width="3"/>
   <line x1="590" y1="600" x2="660" y2="600" stroke="#EAF1F2" stroke-width="3"/><rect x="700" y="575" width="70" height="50" fill="#0F6E56" opacity="0.5"/>
   <line x1="735" y1="575" x2="735" y2="625" stroke="#EAF1F2" stroke-width="3"/>
   <line x1="700" y1="600" x2="770" y2="600" stroke="#EAF1F2" stroke-width="3"/><rect x="810" y="575" width="70" height="50" fill="#0F6E56" opacity="0.5"/>
   <line x1="845" y1="575" x2="845" y2="625" stroke="#EAF1F2" stroke-width="3"/>
   <line x1="810" y1="600" x2="880" y2="600" stroke="#EAF1F2" stroke-width="3"/><rect x="920" y="575" width="70" height="50" fill="#0F6E56" opacity="0.5"/>
   <line x1="955" y1="575" x2="955" y2="625" stroke="#EAF1F2" stroke-width="3"/>
   <line x1="920" y1="600" x2="990" y2="600" stroke="#EAF1F2" stroke-width="3"/>
    <!-- rooftop terrace -->
    <rect x="550" y="136" width="500" height="28" fill="#5A6B66"/>
    <rect x="620" y="100" width="160" height="40" fill="#EF9F27" opacity="0.85"/>
    <rect x="800" y="110" width="180" height="30" fill="#0F6E56" opacity="0.6"/>
    <circle cx="940" cy="130" r="14" fill="#EF9F27"/>
  </svg>
