<svg xmlns="http://www.w3.org/2000/svg" viewBox="0 0 1600 800" preserveAspectRatio="xMidYMid slice"><defs>
    <linearGradient id="sky" x1="0" y1="0" x2="0" y2="1">
      <stop offset="0" stop-color="#CFE3F5"/>
      <stop offset="1" stop-color="#9EC0DC"/>
    </linearGradient>
    <linearGradient id="wallG" x1="0" y1="0" x2="0" y2="1">
      <stop offset="0" stop-color="#EAF1F2"/>
      <stop offset="1" stop-color="#EAF1F2" stop-opacity="0.85"/>
    </linearGradient>
    <pattern id="dots" width="36" height="36" patternUnits="userSpaceOnUse">
      <circle cx="2" cy="2" r="1.4" fill="white" opacity="0.18"/>
    </pattern>
  </defs>
  <rect width="1600" height="800" fill="url(#sky)"/>
  <rect width="1600" height="800" fill="url(#dots)"/>
    <rect x="0" y="640" width="1600" height="160" fill="#5C7F8E" opacity="0.85"/>
   <rect x="0" y="640" width="1600" height="160" fill="url(#dots)"/>
    
    <rect x="164" y="594" width="12" height="66" fill="#5A6B66"/>
    <ellipse cx="170" cy="584" rx="36" ry="66" fill="#5C7F8E" opacity="0.95"/>
    <ellipse cx="155.6" cy="569" rx="21.599999999999998" ry="55" fill="#5C7F8E" opacity="0.8"/>
    <ellipse cx="184.4" cy="569" rx="21.599999999999998" ry="55" fill="#5C7F8E" opacity="0.85"/>
  
    
    <rect x="1444.75" y="602.25" width="10.5" height="57.75" fill="#5A6B66"/>
    <ellipse cx="1450" cy="592.25" rx="31.5" ry="57.75" fill="#5C7F8E" opacity="0.95"/>
    <ellipse cx="1437.4" cy="577.25" rx="18.9" ry="48.125" fill="#5C7F8E" opacity="0.8"/>
    <ellipse cx="1462.6" cy="577.25" rx="18.9" ry="48.125" fill="#5C7F8E" opacity="0.85"/>
  
    
  <circle cx="1280" cy="200" r="70" fill="#EF9F27" opacity="0.55"/>
  <circle cx="1280" cy="200" r="44" fill="#EF9F27" opacity="0.9"/>

    <!-- garden -->
    <path d="M 0 640 Q 800 600 1600 640 L 1600 800 L 0 800 Z" fill="#5C7F8E" opacity="0.75"/>
    <!-- main house -->
    <rect x="540" y="430" width="540" height="210" fill="url(#wallG)"/>
    <polygon points="520,440 1100,440 810,300" fill="#5A6B66"/>
    <rect x="780" y="495" width="80" height="145" fill="#5A6B66"/>
    <rect x="790" y="505" width="60" height="120" fill="#EF9F27" opacity="0.6"/>
    <rect x="580" y="470" width="100" height="70" fill="#EF9F27" opacity="0.85"/>
   <line x1="630" y1="470" x2="630" y2="540" stroke="#EAF1F2" stroke-width="3"/>
   <line x1="580" y1="505" x2="680" y2="505" stroke="#EAF1F2" stroke-width="3"/>
    <rect x="960" y="470" width="100" height="70" fill="#0F6E56" opacity="0.5"/>
   <line x1="1010" y1="470" x2="1010" y2="540" stroke="#EAF1F2" stroke-width="3"/>
   <line x1="960" y1="505" x2="1060" y2="505" stroke="#EAF1F2" stroke-width="3"/>
    <rect x="690" y="555" width="70" height="85" fill="#0F6E56" opacity="0.7"/>
    <!-- side annex -->
    <rect x="1080" y="490" width="160" height="150" fill="#EAF1F2" opacity="0.95"/>
    <polygon points="1075,500 1245,500 1160,420" fill="#5A6B66"/>
    <rect x="1110" y="530" width="60" height="50" fill="#0F6E56" opacity="0.5"/>
   <line x1="1140" y1="530" x2="1140" y2="580" stroke="#EAF1F2" stroke-width="3"/>
   <line x1="1110" y1="555" x2="1170" y2="555" stroke="#EAF1F2" stroke-width="3"/>
  </svg>
